<svg width="90" height="18" viewBox="0 0 90 18" fill="none" xmlns="http://www.w3.org/2000/svg">
<path d="M87.1693 2.18231C87.1693 2.01031 87.2032 1.84873 87.271 1.69758C87.3387 1.54642 87.4325 1.41351 87.5524 1.29884C87.6723 1.18417 87.8104 1.09557 87.9668 1.03302C88.1283 0.965261 88.3004 0.931382 88.4828 0.931382C88.6652 0.931382 88.8346 0.965261 88.991 1.03302C89.1473 1.09557 89.2855 1.18417 89.4053 1.29884C89.5252 1.41351 89.619 1.54642 89.6868 1.69758C89.7545 1.84873 89.7884 2.01031 89.7884 2.18231C89.7884 2.35432 89.7545 2.5159 89.6868 2.66705C89.619 2.8182 89.5252 2.95112 89.4053 3.06578C89.2855 3.18045 89.1473 3.27167 88.991 3.33943C88.8346 3.40197 88.6652 3.43325 88.4828 3.43325C88.3004 3.43325 88.1283 3.40197 87.9668 3.33943C87.8104 3.27167 87.6723 3.18045 87.5524 3.06578C87.4325 2.95112 87.3387 2.8182 87.271 2.66705C87.2032 2.5159 87.1693 2.35432 87.1693 2.18231ZM87.4899 2.18231C87.4899 2.31262 87.5159 2.43771 87.568 2.55759C87.6202 2.67226 87.6905 2.7739 87.7791 2.86251C87.873 2.9459 87.9798 3.01366 88.0997 3.06578C88.2196 3.11269 88.3473 3.13615 88.4828 3.13615C88.6183 3.13615 88.746 3.11269 88.8659 3.06578C88.9858 3.01366 89.09 2.9459 89.1786 2.86251C89.2672 2.7739 89.3376 2.67226 89.3897 2.55759C89.4418 2.43771 89.4679 2.31262 89.4679 2.18231C89.4679 2.05201 89.4418 1.92952 89.3897 1.81485C89.3376 1.69497 89.2672 1.59333 89.1786 1.50994C89.09 1.42133 88.9858 1.35357 88.8659 1.30666C88.746 1.25454 88.6183 1.22848 88.4828 1.22848C88.3473 1.22848 88.2196 1.25454 88.0997 1.30666C87.9798 1.35357 87.873 1.42133 87.7791 1.50994C87.6905 1.59333 87.6202 1.69497 87.568 1.81485C87.5159 1.92952 87.4899 2.05201 87.4899 2.18231ZM87.9981 2.79996V1.54903H88.5531C88.6991 1.54903 88.8111 1.58291 88.8893 1.65067C88.9727 1.71321 89.0144 1.80964 89.0144 1.93995C89.0144 2.04419 88.9962 2.10934 88.9597 2.1354C88.9284 2.16146 88.8945 2.19013 88.8581 2.22141L88.905 2.22922C88.9362 2.22922 88.9649 2.24225 88.991 2.26832C89.017 2.29438 89.0301 2.34129 89.0301 2.40905V2.79996H88.8033V2.47941C88.8033 2.41686 88.7695 2.38559 88.7017 2.38559H88.2248V2.79996H87.9981ZM88.5297 2.19013C88.6131 2.19013 88.6782 2.17189 88.7251 2.1354C88.7773 2.09892 88.8033 2.04419 88.8033 1.97122C88.8033 1.80964 88.7173 1.72885 88.5453 1.72885H88.2248V2.19013H88.5297Z" fill="#191C1C"/>
<path d="M0.460938 8.88502L10.2633 3.68973V8.86701L20.0316 3.68973V8.86701L29.8 3.68973V10.8455L19.9976 16.0408V10.8635L10.2293 16.0408V10.8635L0.460938 16.0408V8.88502Z" fill="#191C1C"/>
<path d="M65.458 14.2389V0.475586H68.4626V7.97755L71.7968 4.15872L77.5741 4.15873L80.1329 10.7108L82.6917 4.15873H85.7545L81.5286 14.2389L79.9778 17.922H77.0313L78.6984 14.1226L74.7882 4.81767L71.4285 8.53971L75.7901 14.2389H72.4753L69.5676 10.5751L68.4626 11.8158V14.2389H65.458Z" fill="#191C1C"/>
<path fill-rule="evenodd" clip-rule="evenodd" d="M58.3315 14.4327C56.3128 14.4327 54.1131 13.0891 53.624 10.3619H46.9456C47.3527 11.4474 48.3607 11.9902 49.6983 11.9902C50.59 11.9902 51.3847 11.777 52.1214 11.2148L53.4783 12.6299C52.6448 13.6767 51.2103 14.4327 49.3687 14.4327C47.2117 14.4327 45.2168 13.2984 44.4214 11.2533C43.6612 13.3821 41.7345 14.4327 39.9495 14.4327C38.1661 14.4327 37.1194 13.4635 36.9643 13.0952H36.9061V17.922H33.9015V4.15872H36.9061V5.30243H36.9643C37.1194 4.93411 38.1661 3.96487 39.9495 3.96487C41.7338 3.96487 43.6596 5.01461 44.4205 7.1417C45.2125 5.06562 47.186 3.96487 49.1943 3.96487C51.0278 3.96487 53.0902 4.88056 53.8767 7.09707C54.6484 4.99993 56.5597 3.96487 58.3315 3.96487C60.1149 3.96487 61.1616 4.93411 61.3167 5.30243H61.3749V4.15872H64.3795V14.2389H61.3749V13.0952H61.3167C61.1616 13.4635 60.1149 14.4327 58.3315 14.4327ZM58.9518 11.7576C57.6724 11.7576 56.4899 10.8271 56.4899 9.1988C56.4899 7.57046 57.6724 6.63999 58.9518 6.63999C60.2699 6.63999 61.4524 7.55108 61.4524 9.1988C61.4524 10.8465 60.2699 11.7576 58.9518 11.7576ZM46.8875 8.21016H51.4817C51.2684 7.04707 50.241 6.48491 49.233 6.48491C48.225 6.48491 47.217 7.0083 46.8875 8.21016ZM39.3292 11.7576C38.011 11.7576 36.8286 10.8465 36.8286 9.1988C36.8286 7.55108 38.011 6.63999 39.3292 6.63999C40.6086 6.63999 41.7911 7.57046 41.7911 9.1988C41.7911 10.8271 40.6086 11.7576 39.3292 11.7576Z" fill="#191C1C"/>
</svg>
